# xmcd
#
# Track frame offsets:
# 150
# 17192
# 40764
# 56012
# 75435
# 91253
# 113467
# 130518
# 143672
# 161321
# 180159
# 202854
#
# Disc length: 2946 seconds
#
#
# Revision: 0
# Processed by: cddbd v1.5.2PL0 Copyright (c) Steve Scherf et al.
# Submitted via: FreeRIP 2.53 
#
DISCID=7e0b800c
DTITLE=Bob Seeley - Classic Boogie Woogie and Blues
DYEAR=1900
DGENRE=Boogie Woogie
TTITLE0=The Boogie Rocks
TTITLE1=After Hours
TTITLE2=Seeley's Boogie
TTITLE3=Strange Cargo
TTITLE4=Barrelhouse Boogie
TTITLE5=Boogie Woogie Stomp
TTITLE6=Cuttin' The Blues
TTITLE7=Randini's Boogie
TTITLE8=You Don't Know My Mind
TTITLE9=Six Wheel Chaser
TTITLE10=Yancey Special
TTITLE11=Boogie Woogie Dream
EXTD=CD102
EXTT0=
EXTT1=
EXTT2=
EXTT3=
EXTT4=
EXTT5=
EXTT6=
EXTT7=
EXTT8=
EXTT9=
EXTT10=
EXTT11=
PLAYORDER=
